<?xml version="1.0" encoding="UTF-8" standalone="no"?><!DOCTYPE svg PUBLIC "-//W3C//DTD SVG 1.1//EN" "http://www.w3.org/Graphics/SVG/1.1/DTD/svg11.dtd"><svg width="100%" height="100%" viewBox="0 0 617 750" version="1.1" xmlns="http://www.w3.org/2000/svg" xmlns:xlink="http://www.w3.org/1999/xlink" xml:space="preserve" xmlns:serif="http://www.serif.com/" style="fill-rule:evenodd;clip-rule:evenodd;stroke-linejoin:round;stroke-miterlimit:2;"><path d="M261.185,625.038c-72.374,-0 -131.242,-56.059 -131.242,-124.961c0,-68.903 58.868,-124.953 131.242,-124.953c72.365,-0 131.242,56.05 131.242,124.953c-0,68.902 -58.877,124.961 -131.242,124.961m262.474,62.485l0,-624.814c0,-34.497 29.386,-62.477 65.626,-62.477l-131.242,0c-18.129,0 -34.533,7.035 -46.42,18.278c-11.817,11.327 -19.196,26.946 -19.196,44.199l-0,220.967c-38.621,-21.286 -83.413,-33.522 -131.242,-33.522c-144.967,0 -262.484,111.893 -262.484,249.923c0,138.029 117.517,249.922 262.484,249.922c47.829,-0 92.621,-12.244 131.242,-33.514l-0,33.514l196.858,-0c-36.24,-0 -65.626,-27.971 -65.626,-62.476" style="fill:#dca43f;fill-rule:nonzero;"/></svg>