<?xml version="1.0" encoding="UTF-8" standalone="no"?><!DOCTYPE svg PUBLIC "-//W3C//DTD SVG 1.1//EN" "http://www.w3.org/Graphics/SVG/1.1/DTD/svg11.dtd"><svg width="100%" height="100%" viewBox="0 0 1284 1834" version="1.1" xmlns="http://www.w3.org/2000/svg" xmlns:xlink="http://www.w3.org/1999/xlink" xml:space="preserve" xmlns:serif="http://www.serif.com/" style="fill-rule:evenodd;clip-rule:evenodd;stroke-linejoin:round;stroke-miterlimit:2;"><g id="OBJECTS"><path d="M581.957,1280.59c-127.12,0 -230.517,-103.412 -230.517,-230.516c0,-127.105 103.397,-230.502 230.517,-230.502c127.105,0 230.517,103.397 230.517,230.502c-0,127.104 -103.412,230.516 -230.517,230.516m461.018,115.266l-0,-1152.6c-0,-63.637 51.614,-115.251 115.266,-115.251l-230.517,0c-31.841,0 -60.654,12.976 -81.533,33.717c-20.756,20.895 -33.717,49.707 -33.717,81.534l-0,407.62c-67.835,-39.267 -146.508,-61.838 -230.517,-61.838c-254.625,0 -461.033,206.409 -461.033,461.034c-0,254.624 206.408,461.033 461.033,461.033c84.009,0 162.682,-22.586 230.517,-61.823l-0,61.823l345.767,0c-63.652,0 -115.266,-51.598 -115.266,-115.251" style="fill:#dca43f;fill-rule:nonzero;"/></g></svg>